{
  "asset": {
    "version": "2.0",
    "generator": "THREE.GLTFExporter r174"
  },
  "scenes": [
    {
      "name": "AuxScene",
      "nodes": [
        6
      ]
    }
  ],
  "scene": 0,
  "nodes": [
    {
      "translation": [
        -12,
        -11.702499389648438,
        -2.5
      ],
      "mesh": 0
    },
    {
      "children": [
        0
      ]
    },
    {
      "rotation": [
        0,
        0.3826834323650898,
        0,
        0.9238795325112867
      ],
      "scale": [
        4.166666666666667,
        -4.166666666666667,
        4.166666666666667
      ],
      "children": [
        1
      ]
    },
    {
      "children": [
        2
      ]
    },
    {
      "translation": [
        3.5122373276408325e-7,
        0.004558016856513802,
        -7.024474726335939e-7
      ],
      "children": [
        3
      ]
    },
    {
      "children": [
        4
      ]
    },
    {
      "children": [
        5
      ]
    }
  ],
  "bufferViews": [
    {
      "buffer": 0,
      "byteOffset": 0,
      "byteLength": 143856,
      "target": 34962,
      "byteStride": 12
    },
    {
      "buffer": 0,
      "byteOffset": 143856,
      "byteLength": 95904,
      "target": 34962,
      "byteStride": 8
    },
    {
      "buffer": 0,
      "byteOffset": 239760,
      "byteLength": 143856,
      "target": 34962,
      "byteStride": 12
    }
  ],
  "buffers": [
    {
      "byteLength": 383616,
      "uri": "data:application/octet-stream;base64,"
    }
  ],
  "accessors": [
    {
      "bufferView": 0,
      "componentType": 5126,
      "count": 11988,
      "max": [
        24.502029418945312,
        23.90972137451172,
        6
      ],
      "min": [
        -0.5020286440849304,
        -0.5025347471237183,
        -1
      ],
      "type": "VEC3"
    },
    {
      "bufferView": 1,
      "componentType": 5126,
      "count": 11988,
      "max": [
        24,
        23.40703773498535
      ],
      "min": [
        0,
        -5
      ],
      "type": "VEC2"
    },
    {
      "bufferView": 2,
      "componentType": 5126,
      "count": 11988,
      "max": [
        0.9999929666519165,
        0.9999961256980896,
        1
      ],
      "min": [
        -0.999999463558197,
        -0.9998605847358704,
        -1
      ],
      "type": "VEC3"
    }
  ],
  "materials": [
    {
      "pbrMetallicRoughness": {
        "metallicFactor": 0.9,
        "roughnessFactor": 0.2
      },
      "doubleSided": true,
      "extras": {
        "originalProperties": {
          "color": 16777215,
          "roughness": 0.2,
          "metalness": 0.9,
          "clearcoat": 1,
          "clearcoatRoughness": 0.05,
          "transmission": 0,
          "ior": 2.3333333333333335,
          "opacity": 1,
          "sheen": 0,
          "sheenRoughness": 1
        },
        "isHole": false
      },
      "extensions": {
        "KHR_materials_ior": {
          "ior": 2.3333333333333335
        },
        "KHR_materials_clearcoat": {
          "clearcoatFactor": 1,
          "clearcoatRoughnessFactor": 0.05
        }
      }
    }
  ],
  "meshes": [
    {
      "primitives": [
        {
          "mode": 4,
          "attributes": {
            "POSITION": 0,
            "TEXCOORD_0": 1,
            "NORMAL": 2
          },
          "material": 0
        }
      ]
    }
  ],
  "extensionsUsed": [
    "KHR_materials_ior",
    "KHR_materials_clearcoat"
  ]
}